<svg width="23" height="24" viewBox="0 0 23 24" fill="none" xmlns="http://www.w3.org/2000/svg">
<path d="M20 7.01391H15.0645C14.7736 7.01391 14.4947 6.89871 14.289 6.69365C14.0833 6.48859 13.9677 6.21047 13.9677 5.92047V1M20 7.01391V21.9066C20 22.1966 19.8844 22.4747 19.6788 22.6797C19.4731 22.8848 19.1941 23 18.9032 23H4.09677C3.80589 23 3.52692 22.8848 3.32124 22.6797C3.11555 22.4747 3 22.1966 3 21.9066V2.09344C3 1.80344 3.11555 1.52532 3.32124 1.32026C3.52692 1.1152 3.80589 1 4.09677 1H13.9677M20 7.01391L13.9677 1" stroke="#333333" stroke-width="2" stroke-linecap="round" stroke-linejoin="round"/>
<rect x="2" y="11" width="21" height="10" fill="white"/>
<path d="M1 19V13H2.02406C2.82498 13 3.59309 13.3161 4.15942 13.8787C4.72575 14.4413 5.04391 15.2044 5.04391 16C5.04391 16.7956 4.72575 17.5587 4.15942 18.1213C3.59309 18.6839 2.82498 19 2.02406 19H1Z" stroke="#333333" stroke-width="2" stroke-linecap="round" stroke-linejoin="round"/>
<path d="M7.97014 12.7575C7.83619 12.2217 7.29326 11.8959 6.75746 12.0299C6.22167 12.1638 5.89591 12.7067 6.02986 13.2425L7 13L7.97014 12.7575ZM8.5 19L7.52986 19.2425C7.64115 19.6877 8.04113 20 8.5 20C8.95887 20 9.35885 19.6877 9.47014 19.2425L8.5 19ZM10.9701 13.2425C11.1041 12.7067 10.7783 12.1638 10.2425 12.0299C9.70674 11.8959 9.16381 12.2217 9.02986 12.7575L10 13L10.9701 13.2425ZM7 13L6.02986 13.2425L7.52986 19.2425L8.5 19L9.47014 18.7575L7.97014 12.7575L7 13ZM8.5 19L9.47014 19.2425L10.2201 16.2425L9.25 16L8.27986 15.7575L7.52986 18.7575L8.5 19ZM9.25 16L10.2201 16.2425L10.9701 13.2425L10 13L9.02986 12.7575L8.27986 15.7575L9.25 16Z" fill="#333333"/>
<path d="M10.9701 12.7575C10.8362 12.2217 10.2933 11.8959 9.75746 12.0299C9.22167 12.1638 8.89591 12.7067 9.02986 13.2425L10 13L10.9701 12.7575ZM11.5 19L10.5299 19.2425C10.6411 19.6877 11.0411 20 11.5 20C11.9589 20 12.3589 19.6877 12.4701 19.2425L11.5 19ZM13.9701 13.2425C14.1041 12.7067 13.7783 12.1638 13.2425 12.0299C12.7067 11.8959 12.1638 12.2217 12.0299 12.7575L13 13L13.9701 13.2425ZM10 13L9.02986 13.2425L10.5299 19.2425L11.5 19L12.4701 18.7575L10.9701 12.7575L10 13ZM11.5 19L12.4701 19.2425L13.2201 16.2425L12.25 16L11.2799 15.7575L10.5299 18.7575L11.5 19ZM12.25 16L13.2201 16.2425L13.9701 13.2425L13 13L12.0299 12.7575L11.2799 15.7575L12.25 16Z" fill="#333333"/>
<path d="M18.9882 15.1574C18.4359 15.1574 17.9882 15.6051 17.9882 16.1574C17.9882 16.7097 18.4359 17.1574 18.9882 17.1574V16.1574V15.1574ZM20.5528 16.1574L21.5514 16.1047L21.5014 15.1574H20.5528V16.1574ZM17.8295 12.9998L17.8297 13.9998L17.838 13.9998L17.8464 13.9996L17.8295 12.9998ZM18.9882 16.1574V17.1574H20.5528V16.1574V15.1574H18.9882V16.1574ZM20.5528 16.1574L19.5542 16.2101C19.5736 16.578 19.4958 17.067 19.2618 17.4287C19.0694 17.726 18.7216 18.027 17.9311 18.027V19.027V20.027C19.379 20.027 20.3687 19.3995 20.9409 18.5152C21.4715 17.6952 21.5854 16.7494 21.5514 16.1047L20.5528 16.1574ZM17.9311 19.027V18.027C17.3919 18.027 17.0691 17.9032 16.8704 17.7728C16.6698 17.6412 16.5252 17.4567 16.4184 17.2242C16.186 16.7178 16.1866 16.1194 16.1866 15.7761H15.1866H14.1866C14.1866 16.0723 14.1605 17.0994 14.6008 18.0585C14.8304 18.5588 15.1971 19.0671 15.7734 19.4451C16.3515 19.8244 17.0714 20.027 17.9311 20.027V19.027ZM15.1866 15.7761H16.1866C16.1866 15.4166 16.2922 14.9398 16.545 14.5828C16.7623 14.2759 17.1216 13.9999 17.8297 13.9998L17.8295 12.9998L17.8294 11.9998C16.4596 12 15.4974 12.6014 14.9127 13.4271C14.3635 14.2027 14.1866 15.1139 14.1866 15.7761H15.1866ZM17.8295 12.9998L17.8464 13.9996C18.0592 13.996 18.4157 14.0077 18.7562 14.0536C18.9259 14.0764 19.0726 14.1053 19.1863 14.1378C19.3129 14.174 19.3387 14.198 19.3127 14.1792L19.8974 13.3679L20.4821 12.5567C20.2375 12.3804 19.9589 12.2785 19.7361 12.2148C19.5003 12.1474 19.2525 12.1023 19.0232 12.0715C18.5659 12.0099 18.1071 11.9949 17.8127 11.9999L17.8295 12.9998Z" fill="#333333"/>
</svg>
