<svg width="20" height="24" viewBox="0 0 20 24" fill="none" xmlns="http://www.w3.org/2000/svg">
<path d="M18 7.01391H13.0645C12.7736 7.01391 12.4947 6.89871 12.289 6.69365C12.0833 6.48859 11.9677 6.21047 11.9677 5.92047V1M18 7.01391V21.9066C18 22.1966 17.8844 22.4747 17.6788 22.6797C17.4731 22.8848 17.1941 23 16.9032 23H2.09677C1.80589 23 1.52692 22.8848 1.32124 22.6797C1.11555 22.4747 1 22.1966 1 21.9066V2.09344C1 1.80344 1.11555 1.52532 1.32124 1.32026C1.52692 1.1152 1.80589 1 2.09677 1H11.9677M18 7.01391L11.9677 1" stroke="#222222" stroke-width="2" stroke-linecap="round" stroke-linejoin="round"/>
<rect y="11" width="19" height="10" fill="white"/>
<path d="M1.00067 18.9891V13.0117H3.02531C3.56085 13.0115 4.07453 13.2227 4.45334 13.5988C4.83216 13.9749 5.04507 14.485 5.04525 15.0171C5.04543 15.5491 4.83285 16.0594 4.45429 16.4357C4.07573 16.812 3.5622 17.0235 3.02665 17.0237H1" stroke="#222222" stroke-width="2" stroke-linecap="round" stroke-linejoin="round"/>
<path d="M8 19V13H9.02406C9.82498 13 10.5931 13.3161 11.1594 13.8787C11.7257 14.4413 12.0439 15.2044 12.0439 16C12.0439 16.7956 11.7257 17.5587 11.1594 18.1213C10.5931 18.6839 9.82498 19 9.02406 19H8Z" stroke="#222222" stroke-width="2" stroke-linecap="round" stroke-linejoin="round"/>
<path d="M18.0145 13H15V18.9767M15 15.988H16.9669" stroke="#222222" stroke-width="2" stroke-linecap="round" stroke-linejoin="round"/>
</svg>
