<svg width="15" height="18" viewBox="0 0 15 18" fill="none" xmlns="http://www.w3.org/2000/svg">
<path d="M14 5.14711H10.2258C10.0034 5.14711 9.79004 5.05809 9.63275 4.89964C9.47546 4.74118 9.3871 4.52627 9.3871 4.30218V0.5M14 5.14711V16.6551C14 16.8792 13.9116 17.0941 13.7543 17.2525C13.5971 17.411 13.3837 17.5 13.1613 17.5H1.83871C1.61627 17.5 1.40294 17.411 1.24565 17.2525C1.08836 17.0941 1 16.8792 1 16.6551V1.34493C1 1.12084 1.08836 0.905929 1.24565 0.747474C1.40294 0.589019 1.61627 0.5 1.83871 0.5H9.3871M14 5.14711L9.3871 0.5" stroke="#222222" stroke-linecap="round" stroke-linejoin="round"/>
<rect y="7.48438" width="15" height="8.01562" fill="white"/>
<path d="M1.0005 14V9H2.50199C2.89916 8.99985 3.28011 9.1765 3.56104 9.49108C3.84197 9.80566 3.99987 10.2324 4 10.6774C4.00013 11.1225 3.84249 11.5493 3.56174 11.8641C3.281 12.1789 2.90015 12.3559 2.50299 12.356H1" stroke="#222222" stroke-linecap="round" stroke-linejoin="round"/>
<path d="M6 14V9H7.01294C7.80516 9 8.56493 9.26339 9.12511 9.73223C9.68529 10.2011 10 10.837 10 11.5C10 12.163 9.68529 12.7989 9.12511 13.2678C8.56493 13.7366 7.80516 14 7.01294 14H6Z" stroke="#222222" stroke-linecap="round" stroke-linejoin="round"/>
<path d="M14 9H12V14M12 11.4997H13.305" stroke="#222222" stroke-linecap="round" stroke-linejoin="round"/>
</svg>
